<svg xmlns="http://www.w3.org/2000/svg" viewBox="0 0 212.85 66.75"><defs><style>.cls-1{fill:#fff;}</style></defs><title>builder-creative_All-Assets_v03</title><g id="Finished"><path class="cls-1" d="M43.86,17.22a36.81,36.81,0,0,1,.3,4.08c0,12.65-9.06,21.29-21.84,21.29C9.79,42.58,0,33.22,0,21.29S9.73,0,22.33,0c9.79,0,17.58,4.56,20.32,12.17l-13,3.1c-1.52-3-4.08-4-7.3-4-5.72,0-9.67,4.32-9.67,10s4,10,9.73,10c3.83,0,6.51-1.46,8.09-4H21.11V17.22Z"/><path class="cls-1" d="M76.59,41.67l-1.95-5.54H59l-1.95,5.54H43.61L59.74.91H73.91L90,41.67ZM66.85,14.11,62.72,25.73h8.21Z"/><path class="cls-1" d="M111.26,11.56V41.67H98.67V11.56H86.07V.91h37.78V11.56Z"/><path class="cls-1" d="M169.6,21.29c0,11.92-9.73,21.29-22.08,21.29s-22.08-9.37-22.08-21.29S135.1,0,147.51,0,169.6,9.37,169.6,21.29Zm-12.65,0c0-5.72-3.89-10-9.43-10s-9.49,4.32-9.49,10,4,10,9.49,10S156.94,27,156.94,21.29Z"/><path class="cls-1" d="M197.76,41.67,187.17,29.14h-.85V41.67H173.73V.91H196c8.82,0,14.72,5.6,14.72,13.93a13.48,13.48,0,0,1-9.43,13.32l11.56,13.51ZM186.32,19.41h6.94c3.16,0,5.11-1.64,5.11-4.26,0-2.37-1.95-4-5.11-4h-6.94Z"/><path class="cls-1" d="M12.87,57.34a4.75,4.75,0,0,1-4.82,5,4.62,4.62,0,0,1-4.24-2.59v2.37H3.13v-15h.68V55A4.64,4.64,0,0,1,8,52.4,4.73,4.73,0,0,1,12.87,57.34Zm-.68,0A4.12,4.12,0,0,0,8,53a4.33,4.33,0,0,0,0,8.65A4.12,4.12,0,0,0,12.19,57.34Z"/><path class="cls-1" d="M24.81,66.75h-.76L26.31,62,21.8,52.59h.78l4.08,8.67,4.12-8.67h.74Z"/><path class="cls-1" d="M64.94,62.08h-.72V55.84h-9v6.24h-.7v-13h.7V55.2h9V49.05h.72Z"/><path class="cls-1" d="M85.57,57.32a4.95,4.95,0,1,1-5-4.92A4.82,4.82,0,0,1,85.57,57.32Zm-.66,0a4.29,4.29,0,1,0-8.58,0,4.29,4.29,0,1,0,8.58,0Z"/><path class="cls-1" d="M96.15,59.3c.14,1.48,1.54,2.41,3.42,2.41,1.71,0,2.88-.8,2.88-2.12,0-1.13-.86-1.54-1.93-1.77l-2.37-.52c-1.48-.33-2.31-1-2.31-2.24,0-1.61,1.4-2.66,3.42-2.66a3.47,3.47,0,0,1,3.66,2.49l-.64.21a2.78,2.78,0,0,0-3-2.12c-1.61,0-2.72.78-2.72,2,0,1.09.84,1.48,1.91,1.73l2.29.51c1.17.25,2.41.76,2.41,2.31s-1.46,2.72-3.58,2.72-3.81-1.07-4-2.82Z"/><path class="cls-1" d="M118.75,61.52a2.92,2.92,0,0,1-2,.78,2.55,2.55,0,0,1-2.66-2.76V53.19H112v-.6h2.08V49.05h.68v3.54h3.64v.6h-3.64v6.32a2,2,0,0,0,2,2.14,2.47,2.47,0,0,0,1.67-.68Z"/><path class="cls-1" d="M141.28,55.57a6.42,6.42,0,0,1-6.47,6.73,6.73,6.73,0,0,1,0-13.46,6.28,6.28,0,0,1,6,3.64l-.64.25a5.62,5.62,0,0,0-5.39-3.23,6.07,6.07,0,0,0,0,12.13,5.73,5.73,0,0,0,5.78-5.74H134v-.64h7.27Z"/><path class="cls-1" d="M159.42,56v6.13h-.66V60a4.47,4.47,0,0,1-4.06,2.29c-2,0-3.34-1.15-3.34-2.74s1.3-2.92,3.87-2.92l3.54,0V56a2.79,2.79,0,0,0-3-3,3,3,0,0,0-3.19,2.31l-.64-.17c.27-1.61,1.79-2.74,3.81-2.74A3.36,3.36,0,0,1,159.42,56ZM158.76,58v-.8h-3.54c-2.16,0-3.21,1-3.21,2.31s1.07,2.14,2.72,2.14A3.79,3.79,0,0,0,158.76,58Z"/><path class="cls-1" d="M175.45,61.52a2.92,2.92,0,0,1-2,.78,2.55,2.55,0,0,1-2.66-2.76V53.19H168.7v-.6h2.08V49.05h.68v3.54h3.64v.6h-3.64v6.32a2,2,0,0,0,2,2.14,2.47,2.47,0,0,0,1.67-.68Z"/><path class="cls-1" d="M194.07,57.32a4.95,4.95,0,1,1-5-4.92A4.82,4.82,0,0,1,194.07,57.32Zm-.66,0a4.29,4.29,0,1,0-8.58,0,4.29,4.29,0,1,0,8.58,0Z"/><path class="cls-1" d="M210.33,52.59l-.12.62a5.6,5.6,0,0,0-.56,0c-2.64,0-4.14,2.29-4.14,4.78v4.1h-.66V52.59h.66v2.9a4.51,4.51,0,0,1,4.16-3A3,3,0,0,1,210.33,52.59Z"/></g></svg>